HIERARCHY
ROOT joint_Root
{
	OFFSET 0.0 0.0 0.0
	CHANNELS 6 Xposition Yposition Zposition Zrotation Xrotation Yrotation 
	JOINT Hips
	{
		OFFSET 4.5925 91.4895 -427.239
		CHANNELS 6 Xposition Yposition Zposition Zrotation Xrotation Yrotation 
		JOINT Spine
		{
			OFFSET 15.7357 0.0 0.0
			CHANNELS 6 Xposition Yposition Zposition Zrotation Xrotation Yrotation 
			JOINT Chest
			{
				OFFSET 8.98455 -0.406207 0.0
				CHANNELS 6 Xposition Yposition Zposition Zrotation Xrotation Yrotation 
				JOINT Neck
				{
					OFFSET 16.3773 0.0 0.0
					CHANNELS 6 Xposition Yposition Zposition Zrotation Xrotation Yrotation 
					JOINT Head
					{
						OFFSET 6.45672 0.0 0.0
						CHANNELS 6 Xposition Yposition Zposition Zrotation Xrotation Yrotation 
						End Site
						{
							OFFSET 0.0 0.0 0.0
						}
					}
				}
				JOINT Shoulder_L
				{
					OFFSET 12.9942 -0.242716 4.98039
					CHANNELS 6 Xposition Yposition Zposition Zrotation Xrotation Yrotation 
					JOINT UpperArm_L
					{
						OFFSET 5.34809 0.0 0.0
						CHANNELS 6 Xposition Yposition Zposition Zrotation Xrotation Yrotation 
						JOINT LowerArm_L
						{
							OFFSET 24.3286 1.87007e-05 0.0
							CHANNELS 6 Xposition Yposition Zposition Zrotation Xrotation Yrotation 
							JOINT Hand_L
							{
								OFFSET 22.2916 0.0 0.0
								CHANNELS 6 Xposition Yposition Zposition Zrotation Xrotation Yrotation 
								End Site
								{
									OFFSET 0.0 0.0 0.0
								}
							}
						}
					}
				}
				JOINT Shoulder_R
				{
					OFFSET 12.9945 -0.242716 -4.98039
					CHANNELS 6 Xposition Yposition Zposition Zrotation Xrotation Yrotation 
					JOINT UpperArm_R
					{
						OFFSET -5.34813 0.0 0.0
						CHANNELS 6 Xposition Yposition Zposition Zrotation Xrotation Yrotation 
						JOINT LowerArm_R
						{
							OFFSET -24.3289 0.000322201 0.0
							CHANNELS 6 Xposition Yposition Zposition Zrotation Xrotation Yrotation 
							JOINT Hand_R
							{
								OFFSET -22.2915 -0.000108084 0.0
								CHANNELS 6 Xposition Yposition Zposition Zrotation Xrotation Yrotation 
								End Site
								{
									OFFSET 0.0 0.0 0.0
								}
							}
						}
					}
				}
			}
		}
		JOINT UpperLeg_L
		{
			OFFSET -2.19248 -6.46944 0.0
			CHANNELS 6 Xposition Yposition Zposition Zrotation Xrotation Yrotation 
			JOINT LowerLeg_L
			{
				OFFSET 39.0811 0.0 -1.23785e-05
				CHANNELS 6 Xposition Yposition Zposition Zrotation Xrotation Yrotation 
				JOINT Foot_L
				{
					OFFSET 40.9854 0.0 -1.26872e-05
					CHANNELS 6 Xposition Yposition Zposition Zrotation Xrotation Yrotation 
					JOINT Toes_L
					{
						OFFSET 11.7543 0.0 0.0
						CHANNELS 6 Xposition Yposition Zposition Zrotation Xrotation Yrotation 
						End Site
						{
							OFFSET 0.0 0.0 0.0
						}
					}
				}
			}
		}
		JOINT UpperLeg_R
		{
			OFFSET -2.19251 6.46944 0.0
			CHANNELS 6 Xposition Yposition Zposition Zrotation Xrotation Yrotation 
			JOINT LowerLeg_R
			{
				OFFSET -39.0811 -0.00228153 -0.0401928
				CHANNELS 6 Xposition Yposition Zposition Zrotation Xrotation Yrotation 
				JOINT Foot_R
				{
					OFFSET -40.9854 0.0 0.0
					CHANNELS 6 Xposition Yposition Zposition Zrotation Xrotation Yrotation 
					JOINT Toes_R
					{
						OFFSET -11.7543 0.0 0.0
						CHANNELS 6 Xposition Yposition Zposition Zrotation Xrotation Yrotation 
						End Site
						{
							OFFSET 0.0 0.0 0.0
						}
					}
				}
			}
		}
	}
}
MOTION
Frames:	4
Frame Time:	0.0333333
0.000000 0.000000 0.000000 0.000000 0.000000 -0.000000 -1.434720 90.339000 -5.470270 88.654800 -2.361510 13.059200 15.735700 0.000005 -0.000001 88.769900 76.767800 -88.760500 8.984550 -0.406207 -0.000000 18.692900 -0.556068 0.110304 16.377300 -0.000001 -0.000001 3.168300 -4.151360 2.324220 6.456720 -0.000001 -0.000000 -6.767890 -2.775500 -0.514820 12.994200 -0.242716 4.980390 -91.267500 6.513330 -78.963200 5.348090 -0.000007 -0.000001 -49.364800 43.360400 -33.875000 24.328600 0.000019 0.000005 6.721110 17.722700 -21.162800 22.291600 -0.000001 0.000005 11.350600 5.263180 1.081880 12.994500 -0.242716 -4.980390 89.318500 11.301100 -86.526600 -5.348130 -0.000001 -0.000004 -56.085600 33.067900 -25.427400 -24.328900 0.000322 -0.000009 2.476620 6.114280 -22.109600 -22.291500 -0.000108 -0.000004 15.268400 5.388750 -2.575430 -2.192480 -6.469440 -0.000000 -173.552000 -8.712250 -2.718760 39.081100 -0.000007 -0.000012 -0.188970 0.273173 34.674200 40.985400 -0.000006 -0.000013 -0.332940 5.253930 -68.773300 11.754300 -0.000000 0.000003 -0.000048 -0.000548 -16.598800 -2.192510 6.469440 -0.000001 175.814000 19.279700 179.062000 -39.081100 -0.002282 -0.040193 -0.168142 0.259506 33.449900 -40.985400 0.000008 0.000006 4.155110 11.946400 -69.326300 -11.754300 -0.000006 -0.000006 -0.004099 -0.052462 -18.707200
0.000000 0.000000 0.000000 0.000000 0.000000 -0.000000 -1.428900 90.343700 -5.506910 88.643500 -2.406130 13.137000 15.735700 0.000005 -0.000001 88.727500 76.739600 -88.727600 8.984550 -0.406207 -0.000000 18.749000 -0.577288 0.095116 16.377300 -0.000001 -0.000001 3.184820 -4.163610 2.348210 6.456720 -0.000001 -0.000000 -6.780320 -2.750880 -0.569709 12.994200 -0.242716 4.980390 -91.260900 6.507290 -79.009200 5.348090 -0.000007 -0.000001 -49.408400 43.297300 -33.791900 24.328600 0.000019 0.000005 6.693900 17.661400 -21.148500 22.291600 -0.000001 0.000005 11.240000 5.262970 1.087340 12.994500 -0.242716 -4.980390 89.284700 11.307300 -86.356500 -5.348130 -0.000001 -0.000004 -56.290900 31.987900 -25.391900 -24.328900 0.000322 -0.000009 2.539810 5.982710 -23.062400 -22.291500 -0.000108 -0.000004 15.545900 5.390310 -2.625020 -2.192480 -6.469440 -0.000000 -173.518000 -8.776260 -2.650430 39.081100 -0.000007 -0.000012 -0.188667 0.272880 34.660000 40.985400 -0.000006 -0.000013 -0.318294 5.283740 -68.743700 11.754300 -0.000000 0.000003 -0.000049 -0.000554 -16.599100 -2.192510 6.469440 -0.000001 175.804000 19.280700 179.129000 -39.081100 -0.002282 -0.040193 -0.167289 0.258475 33.423400 -40.985400 0.000008 0.000006 4.166860 11.989400 -69.288300 -11.754300 -0.000006 -0.000006 -0.004123 -0.052713 -18.717400
0.000000 0.000000 0.000000 0.000000 0.000000 -0.000000 -1.422330 90.340300 -5.554420 88.628700 -2.472820 13.127000 15.735700 0.000005 -0.000001 88.677800 76.736900 -88.694600 8.984550 -0.406207 -0.000000 18.753800 -0.601561 0.065691 16.377300 -0.000001 -0.000001 3.191970 -4.175620 2.360140 6.456720 -0.000001 -0.000000 -6.790700 -2.724040 -0.574221 12.994200 -0.242716 4.980390 -91.260100 6.478020 -78.968000 5.348090 -0.000007 -0.000001 -49.390600 43.281800 -33.859000 24.328600 0.000019 0.000005 6.706230 17.789200 -21.050000 22.291600 -0.000001 0.000005 11.274200 5.264310 1.051390 12.994500 -0.242716 -4.980390 89.245900 11.280200 -86.150100 -5.348130 -0.000001 -0.000004 -56.348400 30.952300 -25.451000 -24.328900 0.000322 -0.000009 2.605140 5.756130 -24.410900 -22.291500 -0.000108 -0.000004 15.972200 5.394380 -2.755740 -2.192480 -6.469440 -0.000000 -173.509000 -8.783090 -2.702710 39.081100 -0.000007 -0.000012 -0.190228 0.274822 34.690900 40.985400 -0.000006 -0.000013 -0.331101 5.227430 -68.728300 11.754300 -0.000000 0.000003 -0.000049 -0.000555 -16.599100 -2.192510 6.469440 -0.000001 175.841000 19.237000 179.065000 -39.081100 -0.002282 -0.040193 -0.167316 0.258332 33.442200 -40.985400 0.000008 0.000006 4.175250 12.013100 -69.259400 -11.754300 -0.000006 -0.000006 -0.004307 -0.054598 -18.794200
0.000000 0.000000 0.000000 0.000000 0.000000 -0.000000 -1.408270 90.339600 -5.600120 88.592000 -2.569180 13.144600 15.735700 0.000005 -0.000001 88.616600 76.741200 -88.651600 8.984550 -0.406207 -0.000000 18.744500 -0.630853 0.033945 16.377300 -0.000001 -0.000001 3.236700 -4.111590 2.315540 6.456720 -0.000001 -0.000000 -6.684540 -2.648000 -0.562455 12.994200 -0.242716 4.980390 -91.258600 6.462260 -78.954200 5.348090 -0.000007 -0.000001 -49.501200 43.155900 -33.689700 24.328600 0.000019 0.000005 6.753900 17.824100 -21.151100 22.291600 -0.000001 0.000005 11.340900 5.263810 1.064970 12.994500 -0.242716 -4.980390 89.212400 11.239900 -85.965800 -5.348130 -0.000001 -0.000004 -56.285100 29.977000 -25.564800 -24.328900 0.000322 -0.000009 2.694960 5.526990 -26.054500 -22.291500 -0.000108 -0.000004 16.359200 5.398600 -2.891970 -2.192480 -6.469440 -0.000000 -173.478000 -8.801900 -2.714000 39.081100 -0.000007 -0.000012 -0.187666 0.270828 34.719800 40.985400 -0.000006 -0.000013 -0.335632 5.174390 -68.722600 11.754300 -0.000000 0.000003 -0.000057 -0.000634 -16.602100 -2.192510 6.469440 -0.000001 175.898000 19.154600 179.040000 -39.081100 -0.002282 -0.040193 -0.165224 0.255250 33.433400 -40.985400 0.000008 0.000006 4.172340 12.025600 -69.213300 -11.754300 -0.000006 -0.000006 -0.004260 -0.054121 -18.774700
